<svg width="757" height="136" viewBox="0 0 757 136" fill="none" xmlns="http://www.w3.org/2000/svg">
<path d="M208.444 102.138L193.565 102.056C192.349 102.049 191.454 101.788 190.881 101.273C190.372 100.694 190.121 99.7969 190.128 98.5809L190.472 36.3738C190.478 35.1579 190.739 34.2953 191.254 33.7861C191.833 33.2133 192.731 32.9303 193.947 32.937L236.762 33.1737C237.978 33.1804 238.841 33.4732 239.349 34.052C239.922 34.5672 240.206 35.4328 240.199 36.6488L240.136 48.0726C240.129 49.2886 239.836 50.183 239.257 50.7558C238.742 51.2649 237.877 51.5162 236.661 51.5094L212.181 51.3741L212.126 61.358L228.83 61.4503C230.046 61.457 230.908 61.7498 231.417 62.3286C231.99 62.8438 232.273 63.7094 232.267 64.9254L232.203 76.4452C232.196 77.6612 231.903 78.5556 231.324 79.1284C230.809 79.6375 229.944 79.8887 228.728 79.882L212.024 79.7897L211.919 98.7014C211.913 99.9174 211.62 100.812 211.041 101.385C210.526 101.894 209.66 102.145 208.444 102.138ZM277.674 50.6802L277.606 62.968L284.806 63.0078C286.47 63.017 287.592 62.6072 288.173 61.7784C288.753 60.8856 289.047 59.7992 289.055 58.5192L289.073 55.2553C289.08 53.9753 288.798 52.9177 288.226 52.0825C287.655 51.1834 286.538 50.7292 284.874 50.72L277.674 50.6802ZM273.931 102.5L259.147 102.419C257.931 102.412 257.037 102.151 256.464 101.636C255.955 101.057 255.704 100.159 255.711 98.9435L256.054 36.7364C256.061 35.5205 256.322 34.6579 256.837 34.1487C257.416 33.5759 258.314 33.2929 259.53 33.2996L291.497 33.4763C298.665 33.516 303.585 35.0472 306.256 38.07C308.992 41.0292 310.346 44.8767 310.32 49.6127L310.296 54.0286C310.281 56.7166 309.852 59.0182 309.01 60.9336C308.231 62.7853 306.848 64.1217 304.859 64.9427C308.313 65.3458 311.089 66.7692 313.188 69.2128C315.35 71.6568 316.42 74.8948 316.398 78.9267L316.286 99.2784C316.279 100.494 315.986 101.389 315.407 101.962C314.892 102.471 314.027 102.722 312.811 102.715L297.931 102.633C296.715 102.626 295.82 102.365 295.247 101.85C294.738 101.271 294.487 100.374 294.494 99.1579L294.575 84.4701C294.583 83.0622 294.301 82.0366 293.728 81.3934C293.22 80.6866 292.294 80.3295 290.95 80.322L277.51 80.2477L277.406 99.0634C277.4 100.279 277.107 101.174 276.527 101.747C276.013 102.256 275.147 102.507 273.931 102.5ZM335.194 102.839C333.978 102.832 333.083 102.571 332.51 102.056C332.001 101.477 331.75 100.58 331.757 99.3639L331.82 87.9401C331.827 86.7241 332.088 85.8616 332.603 85.3524C333.182 84.7796 334.079 84.4966 335.295 84.5033L344.799 84.5558L344.978 52.3003L335.474 52.2478C334.258 52.2411 333.363 51.9801 332.79 51.4649C332.281 50.8861 332.03 49.9887 332.037 48.7727L332.101 37.1569C332.108 35.9409 332.369 35.0783 332.883 34.5692C333.463 33.9964 334.36 33.7133 335.576 33.7201L376.472 33.9462C377.687 33.9529 378.55 34.2457 379.059 34.8245C379.632 35.3397 379.915 36.2052 379.908 37.4212L379.844 49.037C379.837 50.253 379.544 51.1474 378.965 51.7202C378.45 52.2294 377.585 52.4806 376.369 52.4739L367.057 52.4224L366.879 84.6779L376.191 84.7294C377.407 84.7361 378.269 85.0289 378.778 85.6077C379.351 86.1229 379.634 86.9885 379.628 88.2044L379.564 99.6283C379.558 100.844 379.265 101.739 378.686 102.311C378.171 102.821 377.305 103.072 376.089 103.065L335.194 102.839ZM445.637 103.45L401.094 103.203C399.878 103.197 398.983 102.936 398.41 102.421C397.901 101.842 397.65 100.944 397.657 99.7283L398.001 37.5213C398.008 36.3053 398.269 35.4427 398.783 34.9335C399.363 34.3607 400.26 34.0777 401.476 34.0844L446.019 34.3307C447.235 34.3374 448.098 34.6302 448.607 35.209C449.18 35.7242 449.463 36.5898 449.456 37.8057L449.394 49.0376C449.387 50.2535 449.095 51.1479 448.515 51.7207C448.001 52.2299 447.135 52.4811 445.919 52.4744L419.424 52.3279L419.383 59.7198L438.102 59.8233C439.318 59.83 440.181 60.1228 440.69 60.7016C441.263 61.2168 441.546 62.0824 441.539 63.2984L441.482 73.5702C441.476 74.7862 441.183 75.6806 440.604 76.2534C440.089 76.7625 439.223 77.0138 438.007 77.007L419.288 76.9035L419.242 85.1594L445.738 85.3059C446.954 85.3126 447.816 85.6054 448.325 86.1842C448.898 86.6994 449.181 87.565 449.174 88.781L449.112 100.013C449.106 101.229 448.813 102.123 448.234 102.696C447.719 103.205 446.853 103.456 445.637 103.45ZM484.545 103.665L470.145 103.585C468.929 103.578 468.035 103.317 467.462 102.802C466.953 102.223 466.702 101.326 466.709 100.11L467.053 37.903C467.059 36.687 467.32 35.8245 467.835 35.3153C468.414 34.7425 469.312 34.4595 470.528 34.4662L480.511 34.5214C481.727 34.5281 482.75 34.7258 483.58 35.1144C484.474 35.5033 485.334 36.1801 486.161 37.1447L504.667 58.5593L504.78 38.1116C504.787 36.8956 505.047 36.0331 505.562 35.5239C506.141 34.9511 507.039 34.6681 508.255 34.6748L522.655 34.7544C523.871 34.7611 524.733 35.0539 525.242 35.6327C525.815 36.1479 526.098 37.0135 526.092 38.2294L525.748 100.436C525.741 101.652 525.448 102.547 524.869 103.12C524.354 103.629 523.489 103.88 522.273 103.873L507.873 103.794C506.657 103.787 505.762 103.526 505.189 103.011C504.68 102.432 504.429 101.535 504.436 100.319L504.501 88.5108L488.195 68.5484L488.02 100.228C488.014 101.444 487.721 102.338 487.141 102.911C486.627 103.42 485.761 103.671 484.545 103.665ZM581.017 104.198L548.665 104.019C547.45 104.013 546.555 103.752 545.982 103.236C545.473 102.658 545.222 101.76 545.229 100.544L545.573 38.3372C545.579 37.1212 545.84 36.2586 546.355 35.7494C546.934 35.1766 547.832 34.8936 549.048 34.9003L581.399 35.0792C589.399 35.1234 595.31 36.7561 599.132 39.9773C603.019 43.1988 604.943 48.1376 604.907 54.7935L604.741 84.745C604.704 91.4009 602.725 96.318 598.803 99.4964C594.946 102.675 589.017 104.242 581.017 104.198ZM567.282 53.3374L567.102 85.9769L578.525 86.0401C580.061 86.0486 581.183 85.6708 581.892 84.9067C582.664 84.1429 583.054 82.9611 583.063 81.3611L583.192 58.0334C583.201 56.4335 582.823 55.2794 582.059 54.5711C581.36 53.7992 580.242 53.4091 578.706 53.4006L567.282 53.3374ZM671.073 104.696L626.529 104.45C625.313 104.443 624.419 104.182 623.846 103.667C623.337 103.088 623.086 102.191 623.092 100.975L623.436 38.7677C623.443 37.5517 623.704 36.6891 624.219 36.1799C624.798 35.6071 625.695 35.3241 626.911 35.3308L671.455 35.5771C672.671 35.5838 673.533 35.8766 674.042 36.4554C674.615 36.9706 674.898 37.8362 674.892 39.0521L674.83 50.284C674.823 51.5 674.53 52.3943 673.951 52.9672C673.436 53.4763 672.57 53.7275 671.354 53.7208L644.859 53.5743L644.818 60.9662L663.538 61.0697C664.754 61.0764 665.616 61.3692 666.125 61.948C666.698 62.4632 666.981 63.3288 666.975 64.5448L666.918 74.8166C666.911 76.0326 666.618 76.927 666.039 77.4998C665.524 78.0089 664.659 78.2602 663.443 78.2534L644.723 78.1499L644.677 86.4058L671.173 86.5523C672.389 86.559 673.251 86.8518 673.76 87.4306C674.333 87.9458 674.616 88.8114 674.61 90.0274L674.548 101.259C674.541 102.475 674.248 103.37 673.669 103.942C673.154 104.452 672.289 104.703 671.073 104.696ZM714.107 53.0932L714.039 65.381L721.239 65.4208C722.903 65.43 724.025 65.0202 724.606 64.1914C725.187 63.2986 725.481 62.2122 725.488 60.9322L725.506 57.6683C725.513 56.3883 725.231 55.3307 724.659 54.4955C724.088 53.5964 722.971 53.1422 721.307 53.133L714.107 53.0932ZM710.365 104.913L695.581 104.832C694.365 104.825 693.47 104.564 692.897 104.049C692.388 103.47 692.137 102.572 692.144 101.356L692.488 39.1494C692.495 37.9335 692.755 37.0709 693.27 36.5617C693.849 35.9889 694.747 35.7059 695.963 35.7126L727.93 35.8893C735.098 35.929 740.018 37.4602 742.689 40.483C745.425 43.4422 746.78 47.2897 746.753 52.0257L746.729 56.4416C746.714 59.1295 746.285 61.4312 745.443 63.3466C744.665 65.1983 743.281 66.5347 741.293 67.3557C744.746 67.7588 747.523 69.1822 749.621 71.6258C751.784 74.0698 752.854 77.3078 752.831 81.3397L752.719 101.691C752.712 102.907 752.419 103.802 751.84 104.375C751.325 104.884 750.46 105.135 749.244 105.128L734.364 105.046C733.148 105.039 732.254 104.778 731.68 104.263C731.172 103.684 730.921 102.787 730.927 101.571L731.009 86.8831C731.016 85.4752 730.734 84.4496 730.162 83.8064C729.653 83.0996 728.727 82.7425 727.383 82.735L713.944 82.6607L713.84 101.476C713.833 102.692 713.54 103.587 712.961 104.16C712.446 104.669 711.58 104.92 710.365 104.913Z" fill="black"/>
<path d="M102.849 37.1308L2.52441 36.5761C2.24827 36.5746 2.02318 36.7972 2.02165 37.0733L1.63909 106.267C1.63757 106.543 1.86018 106.768 2.13632 106.769L16.8213 106.851C18.7543 106.861 20.3126 108.437 20.3019 110.37L20.2105 126.895C20.2081 127.335 20.7359 127.563 21.0552 127.26L41.3297 107.964C41.9853 107.34 42.857 106.995 43.762 107L102.461 107.324C102.737 107.326 102.962 107.103 102.963 106.827L103.346 37.6335C103.347 37.3574 103.125 37.1323 102.849 37.1308Z" fill="white" stroke="black" stroke-width="3"/>
<mask id="path-3-inside-1_352_43" fill="white">
<path d="M52.8334 10.2883C52.8395 9.18375 53.7399 8.29328 54.8445 8.29939L155.169 8.85407C156.273 8.86018 157.164 9.76054 157.158 10.8651L156.775 80.0585C156.769 81.163 155.869 82.0535 154.764 82.0474L140.079 81.9662C138.974 81.9601 138.074 82.8505 138.068 83.9551L137.977 100.48C137.967 102.243 135.846 103.132 134.582 101.902L114.522 82.3838C114.151 82.0231 113.655 81.8201 113.138 81.8172L54.4398 81.4927C53.3352 81.4866 52.4448 80.5862 52.4509 79.4817L52.8334 10.2883Z"/>
</mask>
<path d="M52.8334 10.2883C52.8395 9.18375 53.7399 8.29328 54.8445 8.29939L155.169 8.85407C156.273 8.86018 157.164 9.76054 157.158 10.8651L156.775 80.0585C156.769 81.163 155.869 82.0535 154.764 82.0474L140.079 81.9662C138.974 81.9601 138.074 82.8505 138.068 83.9551L137.977 100.48C137.967 102.243 135.846 103.132 134.582 101.902L114.522 82.3838C114.151 82.0231 113.655 81.8201 113.138 81.8172L54.4398 81.4927C53.3352 81.4866 52.4448 80.5862 52.4509 79.4817L52.8334 10.2883Z" fill="white"/>
<path d="M114.522 82.3838L112.43 84.5339L114.522 82.3838ZM134.582 101.902L132.49 104.052L134.582 101.902ZM156.775 80.0585L159.775 80.075L156.775 80.0585ZM157.158 10.8651L154.158 10.8485L157.158 10.8651ZM54.8279 11.2993L155.152 11.854L155.185 5.85411L54.861 5.29943L54.8279 11.2993ZM154.158 10.8485L153.775 80.0419L159.775 80.075L160.158 10.8817L154.158 10.8485ZM55.4508 79.4982L55.8334 10.3049L49.8335 10.2717L49.4509 79.4651L55.4508 79.4982ZM154.781 79.0474L140.096 78.9662L140.062 84.9661L154.747 85.0473L154.781 79.0474ZM135.068 83.9385L134.977 100.463L140.977 100.496L141.068 83.9717L135.068 83.9385ZM136.674 99.752L116.614 80.2336L112.43 84.5339L132.49 104.052L136.674 99.752ZM113.155 78.8173L54.4564 78.4927L54.4232 84.4926L113.122 84.8172L113.155 78.8173ZM116.614 80.2336C115.688 79.332 114.448 78.8244 113.155 78.8173L113.122 84.8172C112.863 84.8157 112.615 84.7142 112.43 84.5339L116.614 80.2336ZM140.096 78.9662C137.334 78.951 135.083 81.1771 135.068 83.9385L141.068 83.9717C141.065 84.5239 140.615 84.9692 140.062 84.9661L140.096 78.9662ZM134.977 100.463C134.982 99.5815 136.042 99.1371 136.674 99.752L132.49 104.052C135.649 107.127 140.952 104.905 140.977 100.496L134.977 100.463ZM49.4509 79.4651C49.4356 82.2265 51.6618 84.4774 54.4232 84.4926L54.4564 78.4927C55.0086 78.4958 55.4539 78.946 55.4508 79.4982L49.4509 79.4651ZM153.775 80.0419C153.778 79.4896 154.228 79.0444 154.781 79.0474L154.747 85.0473C157.509 85.0626 159.76 82.8364 159.775 80.075L153.775 80.0419ZM155.152 11.854C154.6 11.851 154.155 11.4008 154.158 10.8485L160.158 10.8817C160.173 8.12029 157.947 5.86938 155.185 5.85411L155.152 11.854ZM54.861 5.29943C52.0997 5.28417 49.8487 7.51033 49.8335 10.2717L55.8334 10.3049C55.8303 10.8572 55.3801 11.3024 54.8279 11.2993L54.861 5.29943Z" fill="black" mask="url(#path-3-inside-1_352_43)"/>
<ellipse cx="106.492" cy="44.2535" rx="23.5574" ry="23.827" transform="rotate(0.316778 106.492 44.2535)" fill="#FFE923"/>
<ellipse cx="116.089" cy="39.4008" rx="5.15319" ry="4.90556" transform="rotate(0.316778 116.089 39.4008)" fill="#020202"/>
<path d="M102.838 39.3275C102.823 42.0367 100.504 44.2202 97.6582 44.2044C94.8122 44.1887 92.5172 41.9797 92.5322 39.2705C92.5472 36.5612 94.8665 34.3777 97.7124 34.3935C100.558 34.4092 102.853 36.6182 102.838 39.3275Z" fill="#090909"/>
<path d="M94.6709 51.8972L98.7675 57.6997C102.794 63.403 111.277 63.3295 115.205 57.5573L118.964 52.0315" stroke="black"/>
</svg>
